<?xml version="1.0" encoding="utf-8"?>
<!-- Generator: Adobe Illustrator 24.1.0, SVG Export Plug-In . SVG Version: 6.00 Build 0)  -->
<svg version="1.1" id="レイヤー_1" xmlns="http://www.w3.org/2000/svg" xmlns:xlink="http://www.w3.org/1999/xlink" x="0px"
	 y="0px" viewBox="0 0 258.24 44.54" style="enable-background:new 0 0 258.24 44.54;" xml:space="preserve">
<style type="text/css">
	.st0{fill:#FFFFFF;}
</style>
<g>
	<path class="st0" d="M13.18,32.77l-3.07,11.07H0L13.18,0.7h12.8l13.38,43.13h-10.5l-3.33-11.07H13.18z M24.13,25.47l-2.69-9.15
		c-0.77-2.56-1.54-5.76-2.18-8.32h-0.13c-0.64,2.56-1.28,5.82-1.98,8.32l-2.56,9.15H24.13z"/>
	<path class="st0" d="M59.2,1.28c2.56-0.51,7.74-0.9,12.61-0.9c5.95,0,9.6,0.58,12.74,2.43c3.01,1.6,5.18,4.54,5.18,8.45
		c0,3.84-2.24,7.42-7.1,9.22v0.13c4.93,1.34,8.58,5.06,8.58,10.62c0,3.9-1.79,6.98-4.48,9.15c-3.14,2.5-8.38,3.9-16.96,3.9
		c-4.8,0-8.38-0.32-10.56-0.64V1.28z M68.86,17.79h3.2c5.12,0,7.87-2.11,7.87-5.31c0-3.26-2.5-4.99-6.91-4.99
		c-2.11,0-3.33,0.13-4.16,0.26V17.79z M68.86,36.93c0.96,0.13,2.11,0.13,3.78,0.13c4.42,0,8.32-1.66,8.32-6.21
		c0-4.35-3.9-6.08-8.77-6.08h-3.33V36.93z"/>
	<path class="st0" d="M150.14,21.82c0,14.14-8.58,22.72-21.18,22.72c-12.8,0-20.29-9.66-20.29-21.95C108.67,9.66,116.93,0,129.66,0
		C142.91,0,150.14,9.92,150.14,21.82z M118.97,22.4c0,8.45,3.97,14.4,10.5,14.4c6.59,0,10.37-6.27,10.37-14.65
		c0-7.74-3.71-14.4-10.43-14.4C122.81,7.74,118.97,14.02,118.97,22.4z"/>
	<path class="st0" d="M179.07,0.7v24.83c0,7.42,2.82,11.2,7.81,11.2c5.12,0,7.94-3.58,7.94-11.2V0.7h9.73v24.19
		c0,13.31-6.72,19.65-17.98,19.65c-10.88,0-17.28-6.02-17.28-19.77V0.7H179.07z"/>
	<path class="st0" d="M236.67,8.9h-11.58V0.7h33.15V8.9h-11.78v34.94h-9.79V8.9z"/>
</g>
</svg>
