<?xml version="1.0" encoding="utf-8"?>
<!-- Generator: Adobe Illustrator 24.1.0, SVG Export Plug-In . SVG Version: 6.00 Build 0)  -->
<svg version="1.1" id="レイヤー_1" xmlns="http://www.w3.org/2000/svg" xmlns:xlink="http://www.w3.org/1999/xlink" x="0px"
	 y="0px" viewBox="0 0 248.38 59.81" style="enable-background:new 0 0 248.38 59.81;" xml:space="preserve">
<style type="text/css">
	.st0{fill:#FFFFFF;}
</style>
<g>
	<path class="st0" d="M17.3,44.44l-4.03,14.53H0L17.3,2.35h16.8l17.56,56.62H37.88l-4.37-14.53H17.3z M31.67,34.86l-3.53-12.01
		c-1.01-3.36-2.02-7.56-2.86-10.92h-0.17c-0.84,3.36-1.68,7.64-2.6,10.92l-3.36,12.01H31.67z"/>
	<path class="st0" d="M67.62,2.35H80.3v25.03h0.25c1.26-2.18,2.6-4.2,3.86-6.22L97.27,2.35h15.71L94.25,26.46l19.74,32.51H99.03
		L85.17,34.52l-4.87,5.96v18.48H67.62V2.35z"/>
	<path class="st0" d="M143.81,2.35v56.62h-12.85V2.35H143.81z"/>
	<path class="st0" d="M201.43,6.47c0,3.53-2.69,6.38-6.89,6.38c-4.03,0-6.72-2.86-6.64-6.38c-0.08-3.7,2.6-6.47,6.72-6.47
		S201.35,2.77,201.43,6.47z M188.24,58.97V17.89h12.77v41.08H188.24z"/>
	<path class="st0" d="M219.57,47.8c2.35,1.43,7.22,3.11,11,3.11c3.86,0,5.46-1.34,5.46-3.44c0-2.1-1.26-3.11-6.05-4.7
		c-8.48-2.86-11.76-7.48-11.68-12.35c0-7.64,6.55-13.44,16.72-13.44c4.79,0,9.07,1.09,11.59,2.35l-2.27,8.82
		c-1.85-1.01-5.38-2.35-8.9-2.35c-3.11,0-4.87,1.26-4.87,3.36c0,1.93,1.6,2.94,6.64,4.7c7.81,2.69,11.09,6.64,11.17,12.68
		c0,7.64-6.05,13.27-17.81,13.27c-5.38,0-10.16-1.18-13.27-2.86L219.57,47.8z"/>
</g>
</svg>
