<?xml version="1.0" encoding="utf-8"?>
<!-- Generator: Adobe Illustrator 24.1.0, SVG Export Plug-In . SVG Version: 6.00 Build 0)  -->
<svg version="1.1" id="レイヤー_1" xmlns="http://www.w3.org/2000/svg" xmlns:xlink="http://www.w3.org/1999/xlink" x="0px"
	 y="0px" viewBox="0 0 211.33 44.54" style="enable-background:new 0 0 211.33 44.54;" xml:space="preserve">
<style type="text/css">
	.st0{fill:#FFFFFF;}
</style>
<g>
	<path class="st0" d="M9.79,0.7v16.57h16.06V0.7h9.73v43.13h-9.73V25.79H9.79v18.05H0V0.7H9.79z"/>
	<path class="st0" d="M96.38,21.82c0,14.14-8.58,22.72-21.18,22.72c-12.8,0-20.29-9.66-20.29-21.95C54.91,9.66,63.17,0,75.9,0
		C89.15,0,96.38,9.92,96.38,21.82z M65.21,22.4c0,8.45,3.97,14.4,10.5,14.4c6.59,0,10.37-6.27,10.37-14.65
		c0-7.74-3.71-14.4-10.43-14.4C69.05,7.74,65.21,14.02,65.21,22.4z"/>
	<path class="st0" d="M152.06,27.33c-0.19-5.18-0.38-11.46-0.38-17.73h-0.19c-1.34,5.5-3.14,11.65-4.8,16.7l-5.25,16.83h-7.62
		l-4.61-16.7c-1.41-5.06-2.88-11.2-3.9-16.83h-0.13c-0.26,5.82-0.45,12.48-0.77,17.85l-0.77,16.38h-9.02l2.75-43.13h12.99l4.22,14.4
		c1.34,4.99,2.69,10.37,3.65,15.42h0.19c1.22-4.99,2.69-10.69,4.1-15.49l4.61-14.33h12.73l2.37,43.13h-9.54L152.06,27.33z"/>
	<path class="st0" d="M209.47,25.6H193.6v10.24h17.73v8h-27.52V0.7h26.62v8H193.6v8.96h15.87V25.6z"/>
</g>
</svg>
