<?xml version="1.0" encoding="utf-8"?>
<!-- Generator: Adobe Illustrator 24.1.0, SVG Export Plug-In . SVG Version: 6.00 Build 0)  -->
<svg version="1.1" id="レイヤー_1" xmlns="http://www.w3.org/2000/svg" xmlns:xlink="http://www.w3.org/1999/xlink" x="0px"
	 y="0px" viewBox="0 0 185.79 43.13" style="enable-background:new 0 0 185.79 43.13;" xml:space="preserve">
<style type="text/css">
	.st0{fill:#FFFFFF;}
</style>
<g>
	<path class="st0" d="M37.44,26.62c-0.19-5.18-0.38-11.46-0.38-17.73h-0.19c-1.34,5.5-3.14,11.65-4.8,16.7l-5.25,16.83H19.2
		l-4.61-16.7c-1.41-5.06-2.88-11.2-3.9-16.83h-0.13c-0.26,5.82-0.45,12.48-0.77,17.85L9.02,43.13H0L2.75,0h12.99l4.22,14.4
		c1.34,4.99,2.69,10.37,3.65,15.42h0.19c1.22-4.99,2.69-10.69,4.1-15.49L32.51,0h12.73l2.37,43.13h-9.54L37.44,26.62z"/>
	<path class="st0" d="M77.95,32.06l-3.07,11.07H64.77L77.95,0h12.8l13.38,43.13h-10.5L90.3,32.06H77.95z M88.89,24.77l-2.69-9.15
		c-0.77-2.56-1.54-5.76-2.18-8.32H83.9c-0.64,2.56-1.28,5.82-1.98,8.32l-2.56,9.15H88.89z"/>
	<path class="st0" d="M133.76,0v43.13h-9.79V0H133.76z"/>
	<path class="st0" d="M158.85,0h9.79v34.94h17.15v8.19h-26.94V0z"/>
</g>
</svg>
