<?xml version="1.0" encoding="utf-8"?>
<!-- Generator: Adobe Illustrator 24.1.0, SVG Export Plug-In . SVG Version: 6.00 Build 0)  -->
<svg version="1.1" id="レイヤー_1" xmlns="http://www.w3.org/2000/svg" xmlns:xlink="http://www.w3.org/1999/xlink" x="0px"
	 y="0px" viewBox="0 0 226.62 44.54" style="enable-background:new 0 0 226.62 44.54;" xml:space="preserve">
<style type="text/css">
	.st0{fill:#FFFFFF;}
</style>
<g>
	<path class="st0" d="M10.24,43.84L0,0.7h10.43l3.26,17.79c0.96,5.12,1.86,10.69,2.56,15.04h0.13c0.7-4.67,1.73-9.86,2.82-15.17
		L22.85,0.7h10.37l3.46,18.17c0.96,5.06,1.66,9.66,2.3,14.46h0.13c0.64-4.8,1.6-9.86,2.5-14.98L45.12,0.7h9.92L43.9,43.84H33.34
		l-3.65-18.56c-0.83-4.35-1.54-8.38-2.05-13.31h-0.13c-0.77,4.86-1.47,8.96-2.5,13.31l-4.1,18.56H10.24z"/>
	<path class="st0" d="M112.38,21.82c0,14.14-8.58,22.72-21.18,22.72c-12.8,0-20.29-9.66-20.29-21.95C70.91,9.66,79.17,0,91.9,0
		C105.15,0,112.38,9.92,112.38,21.82z M81.21,22.4c0,8.45,3.97,14.4,10.5,14.4c6.59,0,10.37-6.27,10.37-14.65
		c0-7.74-3.71-14.4-10.43-14.4C85.05,7.74,81.21,14.02,81.21,22.4z"/>
	<path class="st0" d="M135.42,1.28c3.14-0.51,7.81-0.9,12.99-0.9c6.4,0,10.88,0.96,13.95,3.39c2.56,2.05,3.97,5.06,3.97,9.02
		c0,5.5-3.9,9.28-7.62,10.62v0.19c3.01,1.22,4.67,4.1,5.76,8.06c1.34,4.86,2.69,10.5,3.52,12.16h-9.98
		c-0.7-1.22-1.73-4.74-3.01-10.05c-1.15-5.38-3.01-6.85-6.98-6.91h-2.94v16.96h-9.66V1.28z M145.09,19.84h3.84
		c4.86,0,7.74-2.43,7.74-6.21c0-3.97-2.69-5.95-7.17-6.02c-2.37,0-3.71,0.19-4.42,0.32V19.84z"/>
	<path class="st0" d="M191.29,0.7h9.66v19.07h0.19c0.96-1.66,1.98-3.2,2.94-4.74l9.79-14.33h11.97l-14.27,18.37l15.04,24.77h-11.39
		l-10.56-18.62l-3.71,4.54v14.08h-9.66V0.7z"/>
</g>
</svg>
